<svg xmlns="http://www.w3.org/2000/svg" data-name="Layer 1" viewBox="0 0 100 125" x="0px" y="0px"><title>07</title><path d="M80,15.79H20a11,11,0,0,0-11,11v35a11,11,0,0,0,11,11h33.8L65.75,83A5,5,0,0,0,69,84.21a5,5,0,0,0,2.11-.47A5,5,0,0,0,74,79.2V72.79h6a11,11,0,0,0,11-11v-35A11,11,0,0,0,80,15.79Zm5,46a5,5,0,0,1-5,5H71a3,3,0,0,0-3,3V77L56.9,67.52a3,3,0,0,0-2-.72H20a5,5,0,0,1-5-5v-35a5,5,0,0,1,5-5H80a5,5,0,0,1,5,5Z"/><text x="0" y="115" fill="#000000" font-size="5px" font-weight="bold" font-family="'Helvetica Neue', Helvetica, Arial-Unicode, Arial, Sans-serif">Created by Rajive</text><text x="0" y="120" fill="#000000" font-size="5px" font-weight="bold" font-family="'Helvetica Neue', Helvetica, Arial-Unicode, Arial, Sans-serif">from the Noun Project</text></svg>