<?xml version="1.0" encoding="utf-8"?>
<!-- Generator: Adobe Illustrator 21.1.0, SVG Export Plug-In . SVG Version: 6.00 Build 0)  -->
<svg version="1.1" id="Layer_1" xmlns="http://www.w3.org/2000/svg" xmlns:xlink="http://www.w3.org/1999/xlink" x="0px" y="0px"
	 viewBox="0 0 2496 2500" style="enable-background:new 0 0 2496 2500;" xml:space="preserve">
<style type="text/css">
	.st0{fill:#FFFFFF;stroke:#000000;stroke-width:50;stroke-miterlimit:10;}
</style>
<title>Like</title>
<path class="st0" d="M628.9,1109.2h274.4c21.6,0,39.2,17.4,39.2,39.2v630c0,21.6-17.4,39.2-39.2,39.2H628.9
	c-21.6,0-39.2-17.4-39.2-39.2v-630.2C589.8,1126.7,607.3,1109.2,628.9,1109.2z M1038.4,1669.6v-451.3c0.2-111.2,31.2-220,89.9-314.4
	c35.7-57.2,115.8-148.7,160.7-196.1c10-10.6,46.2-41.9,46.2-59c0-21.9,2.5-57.3,3.3-123.3c0.5-41.9,34.6-76.3,76.4-75.9h1.8
	c73.3,1.3,96.7,69.1,96.7,69.1s62.6,123.6,4.2,274.9c-49.4,127.8-59.5,138.1-59.5,138.1s-16,23.1,34.6,22.1c0,0,308.4-1.3,319.1-1.3
	c22.8,0,95.4,20.8,91.2,113.3c-3,68.5-45.5,92.4-67.3,100.2c-2.8,1-4.3,4.2-3.2,7c0.5,1.2,1.3,2.2,2.5,2.8
	c22.3,13,67.8,45.7,66.8,95.9c-1.3,60.8-25.8,83.3-76.6,97.2c-2.8,0.7-4.7,3.7-3.8,6.5c0.3,1.5,1.3,2.7,2.5,3.3
	c19.3,11,52.3,37.7,50.4,91.9c-2,55.2-41.9,74.6-63.6,81.3c-2.8,0.8-4.5,3.8-3.7,6.6c0.3,1.2,1.2,2.3,2.2,3
	c13.8,9.5,34.2,30.9,33.2,74.9c-0.5,23.3-8.3,40.2-18.1,52.3c-15.5,19.1-39.7,29.1-64.3,29.2l-684.3,1.3
	C1075.4,1719.1,1038.4,1719.3,1038.4,1669.6L1038.4,1669.6z"/>
</svg>
