<svg xmlns="http://www.w3.org/2000/svg" xmlns:xlink="http://www.w3.org/1999/xlink" version="1.1" x="0px" y="0px" viewBox="0 0 100 125" style="enable-background:new 0 0 100 100;" xml:space="preserve"><g><path d="M36.4,83.5V78c0.6,0.3,1.3,0.7,2,1c2.4,1,5.1,1.5,7.9,1.5h18.3h9.1h1.5c4,0,7.2-3.2,7.2-7.1c0-1.3-0.4-2.5-1-3.6   c2.7-1,4.7-3.6,4.7-6.7c0-1.6-0.5-3.1-1.4-4.3c2-1.3,3.3-3.5,3.3-6c0-1.6-0.5-3.1-1.4-4.3c2-1.3,3.3-3.5,3.3-6   c0-3.9-3.2-7.1-7.2-7.1H72.6h-0.5h-9.9c1.9-7,1.8-12.4-0.5-16.3c-2-3.5-5.1-4.3-5.8-4.5c-0.6-0.2-2.5-0.6-4.4,0.8   c-2,1.4-3,4.2-3,8.3c0,5.5-8.5,11-13.2,13.3c-0.3-0.1-0.6-0.2-0.9-0.2H12.1c-1.1,0-2,0.9-2,2v38.7c0,4.4,3.6,8,8,8h16.3   C35.5,85.5,36.4,84.6,36.4,83.5z M52.6,23.8c0-3.6,0.9-4.7,1.3-5c0.4-0.3,1-0.2,1-0.2c0.1,0,0.2,0.1,0.3,0.1c0,0,1.9,0.4,3.2,2.6   c1.3,2.2,2.3,6.8-0.7,15.6c-0.2,0.6-0.1,1.3,0.3,1.8c0.4,0.5,1,0.8,1.6,0.8h12.6h0.5h10.1c1.8,0,3.2,1.4,3.2,3.1   c0,1.7-1.4,3.1-3.2,3.1h-1.9h-5H74c-1.1,0-2,0.9-2,2s0.9,2,2,2h1.9h5c1.8,0,3.2,1.4,3.2,3.1c0,1.7-1.4,3.1-3.2,3.1H79h-4.1H73   c-1.1,0-2,0.9-2,2s0.9,2,2,2h1.9H79c1.8,0,3.2,1.4,3.2,3.1c0,1.7-1.4,3.1-3.2,3.1h-3.7H74h-1.9c-1.1,0-2,0.9-2,2s0.9,2,2,2H74h1.3   c1.8,0,3.2,1.4,3.2,3.1c0,1.7-1.4,3.1-3.2,3.1h-1.5h-9.1H46.3c-2.3,0-4.5-0.4-6.4-1.2c-2.4-1-3.2-1.9-3.4-2.3c0,0,0-0.1-0.1-0.1V41   C40.1,39.2,52.6,32.6,52.6,23.8z M32.4,81.5H18.1c-2.2,0-4-1.8-4-4V40.8h18.3V81.5z"/></g><text x="0" y="115" fill="#000000" font-size="5px" font-weight="bold" font-family="'Helvetica Neue', Helvetica, Arial-Unicode, Arial, Sans-serif">Created by Jivan</text><text x="0" y="120" fill="#000000" font-size="5px" font-weight="bold" font-family="'Helvetica Neue', Helvetica, Arial-Unicode, Arial, Sans-serif">from the Noun Project</text></svg>