<?xml version="1.0" encoding="utf-8"?>
<!-- Generator: Adobe Illustrator 21.1.0, SVG Export Plug-In . SVG Version: 6.00 Build 0)  -->
<svg version="1.1" id="Layer_1" xmlns="http://www.w3.org/2000/svg" xmlns:xlink="http://www.w3.org/1999/xlink" x="0px" y="0px"
	 viewBox="0 0 500 350" style="enable-background:new 0 0 500 350;" xml:space="preserve">
<style type="text/css">
	.st0{fill:#E35A1A;}
	.st1{fill:#E47017;}
	.st2{fill:#E58714;}
	.st3{fill:#E59E12;}
	.st4{fill:#E6B60F;}
	.st5{fill:#E7CF0C;}
	.st6{fill:#E5E70A;}
	.st7{fill:#CCE807;}
	.st8{fill:#B2E805;}
	.st9{fill:#97E902;}
	.st10{font-family:'Arial-BoldMT';}
	.st11{font-size:85px;}
</style>
<g transform="translate(250,230)">
	<path class="st0" d="M-183.2,66.7c-8.6-23.5-12.5-48.5-11.6-73.5l30,1c-0.7,21.2,2.6,42.3,9.9,62.2L-183.2,66.7z"/>
	<path class="st1" d="M-194.9-6.8c0.9-25,6.6-49.6,16.7-72.5l27.4,12.2c-8.6,19.4-13.4,40.2-14.2,61.4L-194.9-6.8z"/>
	<path class="st2" d="M-178.1-79.3c10.2-22.9,24.7-43.6,42.7-61l20.8,21.6c-15.2,14.7-27.5,32.2-36.1,51.6L-178.1-79.3z"/>
	<path class="st3" d="M-135.5-140.3c18-17.4,39.2-31.2,62.4-40.5l11.2,27.8c-19.6,7.9-37.6,19.6-52.8,34.3L-135.5-140.3z"/>
	<path class="st4" d="M-73-180.8c23.2-9.4,48-14.2,73-14.2v30c-21.2,0-42.2,4.1-61.8,12L-73-180.8z"/>
	<path class="st5" d="M0-195c25,0,49.8,4.8,73,14.2L61.8-153c-19.6-7.9-40.6-12-61.8-12V-195z"/>
	<path class="st6" d="M73-180.8c23.2,9.4,44.4,23.1,62.4,40.5l-20.8,21.6C99.4-133.4,81.5-145,61.8-153L73-180.8z"/>
	<path class="st7" d="M135.5-140.3c18,17.4,32.5,38.1,42.7,61l-27.4,12.2c-8.6-19.4-20.9-36.9-36.1-51.6L135.5-140.3z"/>
	<path class="st8" d="M178.1-79.3c10.2,22.9,15.9,47.5,16.7,72.5l-30,1c-0.7-21.2-5.5-42-14.2-61.4L178.1-79.3z"/>
	<path class="st9" d="M194.9-6.8c0.9,25-3.1,50-11.6,73.5L155,56.4c7.2-19.9,10.6-41,9.9-62.2L194.9-6.8z"/>
</g>
<g transform="translate(250,230)">
	<path d="M4.4,2.3c0,0,79.4-161.6,77.9-162.3C80.9-160.8-4.4-2.3-4.4-2.3s0.7,6,2.2,6.7S3.9,2.5,4.4,2.3"/>
</g>
<text transform="matrix(1 0 0 1 179.0906 309)" class="st10 st11">599</text>
</svg>
